<svg width="32" height="32" viewBox="0 0 32 32" fill="none" xmlns="http://www.w3.org/2000/svg">
<path d="M15.9998 19.2C17.7671 19.2 19.1998 17.7674 19.1998 16C19.1998 14.2327 17.7671 12.8 15.9998 12.8C14.2325 12.8 12.7998 14.2327 12.7998 16C12.7998 17.7674 14.2325 19.2 15.9998 19.2Z" fill="#4FE4F8" stroke="#4FE4F8" stroke-width="1.6" stroke-linecap="round" stroke-linejoin="round"/>
<path d="M6.94906 25.0508C4.5487 22.6504 3.2002 19.3947 3.2002 16C3.2002 12.6053 4.5487 9.34967 6.94906 6.94922M25.0507 25.0508C27.451 22.6504 28.7995 19.3947 28.7995 16C28.7995 12.6053 27.451 9.34967 25.0507 6.94922M10.3431 21.6568C8.8428 20.1565 7.99997 18.1217 7.99997 16C7.99997 13.8783 8.8428 11.8435 10.3431 10.3432M21.6567 21.6568C23.1569 20.1565 23.9998 18.1217 23.9998 16C23.9998 13.8783 23.1569 11.8435 21.6567 10.3432" stroke="#4FE4F8" stroke-width="2.4" stroke-linecap="round" stroke-linejoin="round"/>
</svg>
